# xmcd CD database file
#
# Track frame offsets:
#	150
#	20740
#	37568
#	56479
#	74555
#	96849
#	110579
#	121470
#	142091
#	157773
#	168992
#	183899
#	206448
#	227392
#
# Disc length: 3396 seconds
#
# Revision: 1
# Processed by: cddbd v1.5.1PL0 Copyright (c) Steve Scherf et al.
# Submitted via: CDex 1.50
#
DISCID=b40d420e
DTITLE=Patetico - Kabaretni koncert
DYEAR=2004
DGENRE=Jazz
TTITLE0=V soboto zvecer
TTITLE1=Nikoli
TTITLE2=Moj svet je tvoj svet
TTITLE3=Konec je
TTITLE4=Zapeta
TTITLE5=Vse najboljse mama draga
TTITLE6=Za en tvoj smehljaj
TTITLE7=Vsi natakarji v mestu
TTITLE8=Otozna
TTITLE9=Cigancica
TTITLE10=Vedno ko sem s tabo
TTITLE11=Najine ljubezni pot
TTITLE12=Ultima patetica
TTITLE13=Stran
EXTD=YEAR: 2004
EXTT0=
EXTT1=
EXTT2=
EXTT3=
EXTT4=
EXTT5=
EXTT6=
EXTT7=
EXTT8=
EXTT9=
EXTT10=
EXTT11=
EXTT12=
EXTT13=
PLAYORDER=
